<mxfile host="app.diagrams.net" agent="Mozilla/5.0 (Windows NT 10.0; Win64; x64) AppleWebKit/537.36 (KHTML, like Gecko) Chrome/136.0.0.0 YaBrowser/25.6.0.0 Safari/537.36" version="28.0.3">
  <diagram name="Страница — 1" id="PBBf1oyh2X9KV8ekjaOp">
    <mxGraphModel dx="1042" dy="572" grid="1" gridSize="10" guides="1" tooltips="1" connect="1" arrows="1" fold="1" page="1" pageScale="1" pageWidth="827" pageHeight="1169" math="0" shadow="0">
      <root>
        <mxCell id="0" />
        <mxCell id="1" parent="0" />
        <mxCell id="Oz1fcivlLv0g8rnI_hOn-1" value="Class1" style="swimlane;fontStyle=1;align=center;verticalAlign=middle;childLayout=stackLayout;horizontal=1;startSize=29;horizontalStack=0;resizeParent=1;resizeParentMax=0;resizeLast=0;collapsible=0;marginBottom=0;html=1;whiteSpace=wrap;" parent="1" vertex="1">
          <mxGeometry x="10" y="30" width="170" height="230" as="geometry" />
        </mxCell>
        <mxCell id="Oz1fcivlLv0g8rnI_hOn-2" value="Chess" style="text;html=1;strokeColor=none;fillColor=none;align=center;verticalAlign=middle;spacingLeft=4;spacingRight=4;overflow=hidden;rotatable=0;points=[[0,0.5],[1,0.5]];portConstraint=eastwest;whiteSpace=wrap;" parent="Oz1fcivlLv0g8rnI_hOn-1" vertex="1">
          <mxGeometry y="29" width="170" height="25" as="geometry" />
        </mxCell>
        <mxCell id="Oz1fcivlLv0g8rnI_hOn-3" value="attributes:&lt;div&gt;board:list[list[str]];&lt;/div&gt;&lt;div&gt;order_of_move: str&lt;/div&gt;&lt;div&gt;castling: dict&lt;/div&gt;&lt;div&gt;full_move_number: int&lt;/div&gt;&lt;div&gt;halfmove_clock: int&lt;/div&gt;&lt;div&gt;coord_of_trever_field: Coord&lt;/div&gt;&lt;div&gt;&lt;div&gt;methods:&lt;/div&gt;&lt;div&gt;show_board();&lt;/div&gt;&lt;/div&gt;&lt;div&gt;parse_fen()&lt;/div&gt;&lt;div&gt;&lt;br&gt;&lt;/div&gt;&lt;div&gt;&lt;br&gt;&lt;/div&gt;&lt;div&gt;&lt;br&gt;&lt;/div&gt;&lt;div&gt;&lt;br&gt;&lt;/div&gt;" style="text;html=1;strokeColor=none;fillColor=none;align=left;verticalAlign=middle;spacingLeft=4;spacingRight=4;overflow=hidden;rotatable=0;points=[[0,0.5],[1,0.5]];portConstraint=eastwest;whiteSpace=wrap;" parent="Oz1fcivlLv0g8rnI_hOn-1" vertex="1">
          <mxGeometry y="54" width="170" height="176" as="geometry" />
        </mxCell>
        <mxCell id="Oz1fcivlLv0g8rnI_hOn-4" value="Class1" style="swimlane;fontStyle=1;align=center;verticalAlign=middle;childLayout=stackLayout;horizontal=1;startSize=29;horizontalStack=0;resizeParent=1;resizeParentMax=0;resizeLast=0;collapsible=0;marginBottom=0;html=1;whiteSpace=wrap;" parent="1" vertex="1">
          <mxGeometry x="270" y="290" width="200" height="180" as="geometry" />
        </mxCell>
        <mxCell id="Oz1fcivlLv0g8rnI_hOn-5" value="Figure" style="text;html=1;strokeColor=none;fillColor=none;align=center;verticalAlign=middle;spacingLeft=4;spacingRight=4;overflow=hidden;rotatable=0;points=[[0,0.5],[1,0.5]];portConstraint=eastwest;whiteSpace=wrap;" parent="Oz1fcivlLv0g8rnI_hOn-4" vertex="1">
          <mxGeometry y="29" width="200" height="25" as="geometry" />
        </mxCell>
        <mxCell id="Oz1fcivlLv0g8rnI_hOn-6" value="attributes:&lt;div&gt;color: Color&lt;/div&gt;&lt;div&gt;type: FigureType&lt;/div&gt;&lt;div&gt;coords: Coord&lt;/div&gt;&lt;div&gt;moves: list&lt;/div&gt;&lt;div&gt;methods:&lt;/div&gt;&lt;div&gt;generate_moves(cord_of_king; board)&lt;/div&gt;" style="text;html=1;strokeColor=none;fillColor=none;align=left;verticalAlign=middle;spacingLeft=4;spacingRight=4;overflow=hidden;rotatable=0;points=[[0,0.5],[1,0.5]];portConstraint=eastwest;whiteSpace=wrap;" parent="Oz1fcivlLv0g8rnI_hOn-4" vertex="1">
          <mxGeometry y="54" width="200" height="126" as="geometry" />
        </mxCell>
        <mxCell id="Oz1fcivlLv0g8rnI_hOn-7" value="Class1" style="swimlane;fontStyle=1;align=center;verticalAlign=middle;childLayout=stackLayout;horizontal=1;startSize=29;horizontalStack=0;resizeParent=1;resizeParentMax=0;resizeLast=0;collapsible=0;marginBottom=0;html=1;whiteSpace=wrap;" parent="1" vertex="1">
          <mxGeometry x="270" y="30" width="180" height="230" as="geometry" />
        </mxCell>
        <mxCell id="Oz1fcivlLv0g8rnI_hOn-8" value="Position" style="text;html=1;strokeColor=none;fillColor=none;align=center;verticalAlign=middle;spacingLeft=4;spacingRight=4;overflow=hidden;rotatable=0;points=[[0,0.5],[1,0.5]];portConstraint=eastwest;whiteSpace=wrap;" parent="Oz1fcivlLv0g8rnI_hOn-7" vertex="1">
          <mxGeometry y="29" width="180" height="25" as="geometry" />
        </mxCell>
        <mxCell id="Oz1fcivlLv0g8rnI_hOn-9" value="attributes:&lt;div&gt;cord_of_white_king: Coord&lt;/div&gt;&lt;div&gt;cord_of_black_king&lt;/div&gt;&lt;div&gt;white_figures: list[Figure];&lt;/div&gt;&lt;div&gt;black_figure: list[FIgure];&lt;br&gt;&lt;div&gt;methods:&lt;/div&gt;&lt;/div&gt;&lt;div&gt;check_to_king()&lt;/div&gt;&lt;div&gt;past_pawn()&lt;/div&gt;" style="text;html=1;strokeColor=none;fillColor=none;align=left;verticalAlign=middle;spacingLeft=4;spacingRight=4;overflow=hidden;rotatable=0;points=[[0,0.5],[1,0.5]];portConstraint=eastwest;whiteSpace=wrap;" parent="Oz1fcivlLv0g8rnI_hOn-7" vertex="1">
          <mxGeometry y="54" width="180" height="176" as="geometry" />
        </mxCell>
        <mxCell id="Oz1fcivlLv0g8rnI_hOn-10" value="Class1" style="swimlane;fontStyle=1;align=center;verticalAlign=middle;childLayout=stackLayout;horizontal=1;startSize=29;horizontalStack=0;resizeParent=1;resizeParentMax=0;resizeLast=0;collapsible=0;marginBottom=0;html=1;whiteSpace=wrap;" parent="1" vertex="1">
          <mxGeometry x="580" y="65" width="130" height="160" as="geometry" />
        </mxCell>
        <mxCell id="Oz1fcivlLv0g8rnI_hOn-11" value="Coord" style="text;html=1;strokeColor=none;fillColor=none;align=center;verticalAlign=middle;spacingLeft=4;spacingRight=4;overflow=hidden;rotatable=0;points=[[0,0.5],[1,0.5]];portConstraint=eastwest;whiteSpace=wrap;" parent="Oz1fcivlLv0g8rnI_hOn-10" vertex="1">
          <mxGeometry y="29" width="130" height="25" as="geometry" />
        </mxCell>
        <mxCell id="Oz1fcivlLv0g8rnI_hOn-12" value="attributes:&lt;div&gt;x: int&lt;/div&gt;&lt;div&gt;y: int&lt;/div&gt;&lt;div&gt;valid:bool&lt;/div&gt;&lt;div&gt;methods:&lt;/div&gt;&lt;div&gt;check_valid()&lt;/div&gt;" style="text;html=1;strokeColor=none;fillColor=none;align=left;verticalAlign=middle;spacingLeft=4;spacingRight=4;overflow=hidden;rotatable=0;points=[[0,0.5],[1,0.5]];portConstraint=eastwest;whiteSpace=wrap;" parent="Oz1fcivlLv0g8rnI_hOn-10" vertex="1">
          <mxGeometry y="54" width="130" height="106" as="geometry" />
        </mxCell>
        <mxCell id="Oz1fcivlLv0g8rnI_hOn-18" value="" style="fontStyle=1;align=center;verticalAlign=middle;childLayout=stackLayout;horizontal=1;horizontalStack=0;resizeParent=1;resizeParentMax=0;resizeLast=0;marginBottom=0;" parent="1" vertex="1">
          <mxGeometry x="530" y="290" width="200" height="76" as="geometry" />
        </mxCell>
        <mxCell id="Oz1fcivlLv0g8rnI_hOn-19" value="&amp;lt;&amp;lt;enumeration&amp;gt;&amp;gt;" style="html=1;align=center;spacing=0;verticalAlign=middle;strokeColor=none;fillColor=none;whiteSpace=wrap;" parent="Oz1fcivlLv0g8rnI_hOn-18" vertex="1">
          <mxGeometry width="200" height="20" as="geometry" />
        </mxCell>
        <mxCell id="Oz1fcivlLv0g8rnI_hOn-20" value="Color" style="html=1;align=center;spacing=0;verticalAlign=middle;strokeColor=none;fillColor=none;whiteSpace=wrap;fontStyle=1;" parent="Oz1fcivlLv0g8rnI_hOn-18" vertex="1">
          <mxGeometry y="20" width="200" height="14" as="geometry" />
        </mxCell>
        <mxCell id="Oz1fcivlLv0g8rnI_hOn-21" value="" style="line;strokeWidth=0.25;fillColor=none;align=left;verticalAlign=middle;spacingTop=-1;spacingLeft=3;spacingRight=3;rotatable=0;labelPosition=right;points=[];portConstraint=eastwest;" parent="Oz1fcivlLv0g8rnI_hOn-18" vertex="1">
          <mxGeometry y="34" width="200" height="8" as="geometry" />
        </mxCell>
        <mxCell id="Oz1fcivlLv0g8rnI_hOn-22" value="black&lt;div&gt;white&lt;/div&gt;" style="html=1;align=left;spacing=0;spacingLeft=8;verticalAlign=middle;strokeColor=none;fillColor=none;whiteSpace=wrap;" parent="Oz1fcivlLv0g8rnI_hOn-18" vertex="1">
          <mxGeometry y="42" width="200" height="28" as="geometry" />
        </mxCell>
        <mxCell id="Oz1fcivlLv0g8rnI_hOn-24" value="" style="html=1;align=left;spacing=0;spacingLeft=8;verticalAlign=middle;strokeColor=none;fillColor=none;whiteSpace=wrap;" parent="Oz1fcivlLv0g8rnI_hOn-18" vertex="1">
          <mxGeometry y="70" width="200" height="6" as="geometry" />
        </mxCell>
        <mxCell id="Oz1fcivlLv0g8rnI_hOn-25" value="" style="fontStyle=1;align=center;verticalAlign=middle;childLayout=stackLayout;horizontal=1;horizontalStack=0;resizeParent=1;resizeParentMax=0;resizeLast=0;marginBottom=0;" parent="1" vertex="1">
          <mxGeometry x="530" y="390" width="200" height="156" as="geometry" />
        </mxCell>
        <mxCell id="Oz1fcivlLv0g8rnI_hOn-26" value="&amp;lt;&amp;lt;enumeration&amp;gt;&amp;gt;" style="html=1;align=center;spacing=0;verticalAlign=middle;strokeColor=none;fillColor=none;whiteSpace=wrap;" parent="Oz1fcivlLv0g8rnI_hOn-25" vertex="1">
          <mxGeometry width="200" height="20" as="geometry" />
        </mxCell>
        <mxCell id="Oz1fcivlLv0g8rnI_hOn-27" value="FigureType" style="html=1;align=center;spacing=0;verticalAlign=middle;strokeColor=none;fillColor=none;whiteSpace=wrap;fontStyle=1;" parent="Oz1fcivlLv0g8rnI_hOn-25" vertex="1">
          <mxGeometry y="20" width="200" height="14" as="geometry" />
        </mxCell>
        <mxCell id="Oz1fcivlLv0g8rnI_hOn-28" value="" style="line;strokeWidth=0.25;fillColor=none;align=left;verticalAlign=middle;spacingTop=-1;spacingLeft=3;spacingRight=3;rotatable=0;labelPosition=right;points=[];portConstraint=eastwest;" parent="Oz1fcivlLv0g8rnI_hOn-25" vertex="1">
          <mxGeometry y="34" width="200" height="8" as="geometry" />
        </mxCell>
        <mxCell id="Oz1fcivlLv0g8rnI_hOn-29" value="king&lt;div&gt;queen&lt;br&gt;&lt;div&gt;bishop&lt;/div&gt;&lt;div&gt;knight&lt;/div&gt;&lt;div&gt;rook&lt;/div&gt;&lt;div&gt;pawn&lt;/div&gt;&lt;/div&gt;" style="html=1;align=left;spacing=0;spacingLeft=8;verticalAlign=middle;strokeColor=none;fillColor=none;whiteSpace=wrap;" parent="Oz1fcivlLv0g8rnI_hOn-25" vertex="1">
          <mxGeometry y="42" width="200" height="108" as="geometry" />
        </mxCell>
        <mxCell id="Oz1fcivlLv0g8rnI_hOn-31" value="" style="html=1;align=left;spacing=0;spacingLeft=8;verticalAlign=middle;strokeColor=none;fillColor=none;whiteSpace=wrap;" parent="Oz1fcivlLv0g8rnI_hOn-25" vertex="1">
          <mxGeometry y="150" width="200" height="6" as="geometry" />
        </mxCell>
        <mxCell id="9AvrspACcUWZhjHOTMCS-1" value="" style="edgeStyle=orthogonalEdgeStyle;rounded=0;orthogonalLoop=1;jettySize=auto;html=1;endArrow=oval;endFill=1;" parent="1" source="Oz1fcivlLv0g8rnI_hOn-22" target="Oz1fcivlLv0g8rnI_hOn-6" edge="1">
          <mxGeometry relative="1" as="geometry" />
        </mxCell>
        <mxCell id="9AvrspACcUWZhjHOTMCS-10" value="" style="edgeStyle=orthogonalEdgeStyle;rounded=0;orthogonalLoop=1;jettySize=auto;html=1;endArrow=oval;endFill=1;" parent="1" source="Oz1fcivlLv0g8rnI_hOn-29" target="Oz1fcivlLv0g8rnI_hOn-6" edge="1">
          <mxGeometry relative="1" as="geometry" />
        </mxCell>
        <mxCell id="9AvrspACcUWZhjHOTMCS-14" value="" style="edgeStyle=orthogonalEdgeStyle;rounded=0;orthogonalLoop=1;jettySize=auto;html=1;" parent="1" source="Oz1fcivlLv0g8rnI_hOn-3" target="Oz1fcivlLv0g8rnI_hOn-9" edge="1">
          <mxGeometry relative="1" as="geometry" />
        </mxCell>
      </root>
    </mxGraphModel>
  </diagram>
</mxfile>
